<svg width="16" height="16" viewBox="0 0 16 16" fill="none" xmlns="http://www.w3.org/2000/svg">
<g clip-path="url(#clip0_3055_9999)">
<path d="M8 0C10.2087 0 12.2091 0.895625 13.6566 2.34344C15.1044 3.79094 16 5.79125 16 8C16 10.2087 15.1044 12.2091 13.6566 13.6566C12.2091 15.1044 10.2087 16 8 16C5.79125 16 3.79094 15.1044 2.34344 13.6566C0.895625 12.2091 0 10.2087 0 8C0 5.79125 0.895625 3.79094 2.34344 2.34344C3.79094 0.895625 5.79125 0 8 0Z" fill="#999999"/>
<path d="M7.99982 0.608398C10.0408 0.608398 11.8892 1.4359 13.2264 2.77309C14.5636 4.11027 15.3911 5.9584 15.3911 7.99934C15.3911 10.0403 14.563 11.8887 13.2258 13.2259L13.1889 13.26C11.8536 14.5775 10.0201 15.3909 7.99982 15.3909C5.96139 15.3909 4.11326 14.5625 2.77545 13.2243C1.4367 11.8887 0.608887 10.0403 0.608887 7.99934C0.608887 5.95996 1.4367 4.11246 2.77357 2.77559C4.11076 1.4359 5.95951 0.608398 7.99982 0.608398Z" fill="white"/>
<path d="M7.99981 1.2373C11.7348 1.2373 14.7626 4.26512 14.7626 7.99981C14.7626 11.7348 11.7348 14.7629 7.99981 14.7629C4.26512 14.7629 1.2373 11.7348 1.2373 7.99981C1.2373 4.26512 4.26512 1.2373 7.99981 1.2373Z" fill="#009B3A"/>
<path d="M1.8269 8.03773L7.97284 11.9609L14.1185 8.03773L7.97284 4.11523L1.8269 8.03773Z" fill="#FEDF00"/>
<path d="M7.97267 5.44629C9.40392 5.44629 10.5639 6.60629 10.5639 8.03754C10.5639 9.46879 9.40392 10.6294 7.97267 10.6294C6.54142 10.6294 5.3811 9.46879 5.3811 8.03754C5.3811 6.60629 6.54142 5.44629 7.97267 5.44629Z" fill="#002776"/>
<path d="M5.60233 6.99117C5.89171 6.94898 6.18858 6.92773 6.49171 6.92773C8.03296 6.92773 9.44296 7.48305 10.5376 8.40117C10.5195 8.54305 10.4876 8.67961 10.4458 8.81148C9.39858 7.86961 8.01171 7.29586 6.49171 7.29586C6.14171 7.29586 5.79671 7.32773 5.46265 7.38555C5.49921 7.24898 5.54671 7.11742 5.60233 6.99117Z" fill="white"/>
<path fill-rule="evenodd" clip-rule="evenodd" d="M5.75706 7.23578C5.79425 7.23047 5.818 7.19391 5.81269 7.15172C5.80706 7.10953 5.773 7.07797 5.73894 7.08328C5.70456 7.08828 5.67862 7.12547 5.68394 7.16766C5.68894 7.20953 5.7205 7.23828 5.75706 7.23578ZM10.2458 8.50141C10.2746 8.52203 10.3196 8.51453 10.3458 8.47984C10.3721 8.44578 10.3721 8.40141 10.3427 8.38016C10.3164 8.35672 10.2696 8.36703 10.2458 8.40141C10.2164 8.43297 10.2164 8.47984 10.2458 8.50141ZM10.2164 8.53797C10.2639 8.57734 10.3377 8.56453 10.3799 8.51172C10.4221 8.45922 10.4164 8.38547 10.3696 8.34578C10.3221 8.30672 10.2483 8.31953 10.2061 8.37266C10.1642 8.42516 10.1696 8.49891 10.2164 8.53797ZM9.96675 8.25391C9.95394 8.27516 9.96425 8.29891 9.993 8.31703C10.0221 8.33797 10.043 8.33797 10.0508 8.32516C10.0799 8.28297 9.92769 8.21484 9.97987 8.14359C10.0246 8.08297 10.0933 8.13547 10.1196 8.15391C10.1458 8.17266 10.1855 8.21984 10.1508 8.26734L10.1061 8.23547C10.1221 8.21484 10.1061 8.19359 10.0855 8.17516C10.0642 8.15922 10.0458 8.15141 10.0299 8.17266C10.0036 8.20391 10.1536 8.27766 10.1036 8.34891C10.0667 8.40141 10.0061 8.37516 9.96956 8.34578C9.9355 8.32266 9.888 8.26734 9.92456 8.21734L9.96675 8.25391ZM9.70394 8.07766C9.6905 8.09891 9.70394 8.12203 9.73269 8.14109C9.76175 8.15922 9.78269 8.15922 9.7905 8.14609C9.81675 8.10391 9.66175 8.04109 9.70894 7.96734C9.75081 7.90391 9.82206 7.95391 9.84831 7.96984C9.87456 7.98547 9.91675 8.03016 9.88487 8.08016L9.8405 8.05141C9.85394 8.02766 9.838 8.00672 9.81425 7.99359C9.7905 7.98016 9.77206 7.97234 9.75894 7.99359C9.73519 8.02766 9.888 8.09359 9.843 8.16734C9.80894 8.22203 9.74831 8.19891 9.70644 8.17234C9.67206 8.15141 9.62206 8.09891 9.65394 8.04609L9.70394 8.07766ZM9.343 7.95703L9.53519 8.06734L9.55894 8.02766L9.40112 7.93797L9.43269 7.88328L9.55644 7.95141L9.57456 7.91484L9.45394 7.84609L9.47737 7.80391L9.62456 7.88578L9.64831 7.84609L9.46425 7.74359L9.343 7.95703ZM9.25112 7.90953C9.26331 7.88453 9.28706 7.83703 9.27394 7.80609C9.29894 7.80297 9.32175 7.78828 9.33519 7.76484C9.35394 7.72516 9.338 7.68016 9.30112 7.65953L9.17487 7.59609L9.06206 7.81484L9.10394 7.83578L9.143 7.75391L9.23019 7.79891L9.23175 7.79953C9.24112 7.83328 9.22237 7.87141 9.21206 7.89109L9.25112 7.90953ZM9.16456 7.71203L9.24862 7.75391C9.26425 7.76203 9.28269 7.75703 9.2905 7.74109C9.29862 7.72516 9.293 7.70641 9.27487 7.69922L9.19081 7.65703L9.16456 7.71203ZM8.99612 7.64922L9.03019 7.66484L9.028 7.67078L9.02487 7.67641L8.9805 7.77766L8.94612 7.76203L8.958 7.73484C8.93331 7.74422 8.9055 7.74422 8.8805 7.73328C8.82237 7.70953 8.79862 7.63828 8.82737 7.57547C8.85362 7.51203 8.92237 7.48047 8.97737 7.50703C9.02237 7.52547 9.04612 7.57234 9.04081 7.62234L8.99612 7.60172C8.99331 7.57797 8.9805 7.55703 8.95894 7.54922C8.92737 7.53328 8.88519 7.55422 8.86956 7.59359C8.85112 7.63328 8.86206 7.67547 8.89612 7.69109C8.9205 7.70016 8.94675 7.69422 8.96706 7.67547L8.9305 7.65953L8.94331 7.62766L8.98769 7.64672L8.98831 7.64609L8.99612 7.64953V7.64922ZM8.60362 7.57234C8.63831 7.58578 8.67737 7.56203 8.69081 7.52234C8.70675 7.48328 8.69081 7.43828 8.65675 7.42797C8.62269 7.41453 8.583 7.43828 8.56956 7.47797C8.55362 7.51734 8.56956 7.55953 8.60362 7.57234ZM8.58831 7.61453C8.64644 7.63578 8.71175 7.60172 8.7355 7.53828C8.75925 7.47547 8.733 7.40422 8.67487 7.38328C8.61706 7.36203 8.55112 7.39609 8.52769 7.45953C8.50362 7.52547 8.5305 7.59359 8.58831 7.61453ZM8.3855 7.54359C8.39394 7.51703 8.41019 7.46641 8.393 7.43766C8.41925 7.43234 8.44237 7.41266 8.45144 7.38578C8.46456 7.34609 8.44081 7.30172 8.40144 7.28828L8.26706 7.24609L8.1855 7.48047L8.2305 7.49359L8.25925 7.40672L8.35175 7.43516C8.36612 7.46641 8.35331 7.50766 8.34644 7.53016L8.3855 7.54359ZM8.26956 7.36203L8.35925 7.39141C8.37519 7.39609 8.39331 7.38828 8.39894 7.36984C8.40026 7.36587 8.40076 7.36166 8.4004 7.35748C8.40004 7.35331 8.39882 7.34925 8.39683 7.34556C8.39484 7.34187 8.39211 7.33863 8.38882 7.33603C8.38553 7.33344 8.38174 7.33154 8.37769 7.33047L8.28862 7.30172L8.26956 7.36203ZM7.96175 7.27797L8.05394 7.30172C8.06987 7.30422 8.08862 7.29609 8.09362 7.27797C8.09644 7.26203 8.08862 7.24391 8.06987 7.23828L7.97769 7.21453L7.96175 7.27797ZM7.88331 7.39922L7.92769 7.40953L7.95144 7.31984L8.04644 7.34391C8.08862 7.35422 8.1305 7.33047 8.14112 7.28828C8.15144 7.24609 8.12769 7.20422 8.0855 7.19391L7.94894 7.15703L7.88331 7.39922ZM7.41519 7.30672L7.59612 7.33828L7.60394 7.29609L7.46206 7.27234L7.473 7.21766L7.58581 7.23578L7.59362 7.19641L7.48081 7.17547L7.48581 7.13578L7.623 7.15953L7.63081 7.11766L7.45175 7.08828L7.41519 7.30672ZM6.90175 7.24922L6.94394 7.25422L6.95987 7.08328L6.99394 7.25672L7.03331 7.26203L7.09644 7.09641L7.0805 7.26453L7.12269 7.26766L7.14644 7.02266L7.08331 7.01766L7.02019 7.18047L6.98581 7.00953L6.9255 7.00422L6.90175 7.24922ZM6.58862 7.23578L6.81237 7.24391V7.19922L6.63362 7.19141L6.63612 7.12797L6.7755 7.13328L6.778 7.09141L6.63612 7.08578L6.63862 7.03578L6.80737 7.04391L6.80987 6.99641L6.59956 6.98828L6.58862 7.23578ZM6.32019 7.19141H6.38612C6.42269 7.19141 6.45206 7.15953 6.45206 7.12266V7.10172C6.45206 7.06453 6.42019 7.03578 6.38362 7.03578L6.31487 7.03828L6.32019 7.19141ZM6.27581 7.23828L6.39175 7.23578C6.44956 7.23328 6.49644 7.18578 6.49644 7.12797V7.09391C6.49644 7.03578 6.44644 6.98828 6.38862 6.98828L6.27269 6.99141L6.27581 7.23828ZM6.173 7.24391C6.17081 7.21703 6.16706 7.16203 6.13956 7.14297C6.1605 7.12797 6.17394 7.10266 6.1705 7.07547C6.168 7.03359 6.13081 7.00172 6.08862 7.00422L5.94956 7.01453L5.96269 7.25953L6.00706 7.25672L6.00206 7.16453L6.09706 7.15672C6.12394 7.17984 6.12737 7.22391 6.13081 7.24922L6.173 7.24391ZM5.99956 7.11766L6.09425 7.11203C6.11237 7.10953 6.12581 7.09641 6.123 7.07797C6.123 7.05953 6.10769 7.04641 6.08862 7.04891L5.99425 7.05672L5.99956 7.11766ZM5.76269 7.28047C5.823 7.27234 5.868 7.21203 5.85706 7.14391C5.84925 7.07547 5.79425 7.02797 5.73081 7.03578C5.6705 7.04391 5.62862 7.10422 5.63644 7.17234C5.64675 7.23828 5.70237 7.28828 5.76269 7.28047Z" fill="#009B3A"/>
<path d="M5.85716 7.46145L5.88247 7.5377H5.96278L5.89841 7.5852L5.9231 7.66145L5.85778 7.6152L5.79185 7.66145L5.82747 7.59301L5.75247 7.5377H5.83247L5.85716 7.46145ZM8.71185 7.32488L8.73747 7.24707L8.66966 7.20113H8.75185L8.77747 7.12207L8.80122 7.20113H8.8831L8.8156 7.24707L8.84091 7.32488L8.77653 7.27738L8.71185 7.32488ZM6.15216 8.75051L6.12747 8.67426L6.19185 8.62676H6.11122L6.08622 8.55082L6.06216 8.62676H5.98091L6.04528 8.67426L6.0206 8.75051L6.08622 8.70426L6.15216 8.75051ZM7.95153 10.0952L7.95966 10.068L7.93872 10.053H7.96497L7.97278 10.0264L7.98028 10.053H8.00716L7.9856 10.0683L7.99372 10.0952L7.97278 10.0799L7.95153 10.0952ZM6.86778 9.5027L6.89247 9.42457L6.8281 9.37957H6.90841L6.93372 9.30051L6.95872 9.37957H7.03841L6.97278 9.42551L6.99935 9.5027L6.93247 9.45519L6.86778 9.5027ZM8.50153 9.5502L8.51685 9.49926L8.47278 9.46863H8.52622L8.54341 9.41613L8.56091 9.46863H8.61466L8.5706 9.49926L8.5856 9.5502L8.54341 9.51832L8.50153 9.5502ZM8.92747 9.61363L8.94278 9.56176L8.89872 9.52957H8.9531L8.96966 9.47957L8.98653 9.52957H9.04091L8.99716 9.56176L9.01466 9.61363L8.96997 9.58238L8.92747 9.61363ZM8.69341 9.85801L8.71466 9.79332L8.65935 9.7527H8.72872L8.74872 9.68988L8.76903 9.7527H8.8356L8.78216 9.7927L8.80122 9.85801L8.74841 9.81801L8.69341 9.85801ZM7.81216 8.90832L7.82341 8.87176L7.79122 8.85051H7.82935L7.84122 8.81395L7.85466 8.85051H7.89122L7.86091 8.87145L7.87278 8.90832L7.84278 8.88582L7.81216 8.90832ZM7.66747 8.74519L7.68528 8.69457L7.64122 8.66395H7.69466L7.71216 8.61113L7.72997 8.66395H7.78341L7.73872 8.6952L7.75403 8.74519L7.71153 8.71457L7.66747 8.74519ZM8.21747 8.76113L8.23903 8.69676L8.1856 8.65863H8.25153L8.27278 8.5927L8.29403 8.65863H8.35935L8.30653 8.69613L8.32778 8.76113L8.27278 8.72145L8.21747 8.76113ZM7.90716 9.29019L7.93185 9.21394L7.86747 9.16645H7.9481L7.97278 9.0902L7.99747 9.16645H8.07778L8.01341 9.21394L8.03872 9.29019L7.97278 9.24363L7.90716 9.29019ZM9.21685 9.52426L9.23247 9.4752L9.18841 9.44238H9.24185L9.25903 9.38988L9.27685 9.44238H9.33028L9.28685 9.47457L9.30403 9.52426L9.25966 9.49332L9.21685 9.52426ZM9.68028 9.45832L9.70091 9.39488L9.64841 9.35582H9.71435L9.73528 9.29238L9.75653 9.35582H9.82216L9.76966 9.39488L9.7906 9.45832L9.7356 9.4202L9.68028 9.45832ZM9.48278 9.57426L9.49997 9.5227L9.45653 9.49238H9.5106L9.52716 9.43988L9.54497 9.49238H9.59872L9.55435 9.52301L9.56997 9.57426L9.52716 9.54301L9.48278 9.57426ZM9.22247 10.0399L9.23966 9.98832L9.19622 9.95801H9.24966L9.26685 9.90551L9.28278 9.95801H9.33528L9.29435 9.98832L9.30903 10.0399L9.26653 10.0089L9.22247 10.0399ZM9.21685 9.7952L9.23622 9.72988L9.18278 9.68988H9.24872L9.26997 9.62645L9.2906 9.68988H9.35903L9.30403 9.72988L9.32497 9.7952L9.2706 9.7552L9.21685 9.7952ZM9.8406 9.25051L9.86122 9.18895L9.80653 9.14801H9.87216L9.8931 9.08457L9.91435 9.14801H9.98247L9.92778 9.1877L9.94841 9.25051L9.89466 9.21238L9.8406 9.25051ZM10.1037 9.03207L10.1212 8.9802L10.0775 8.94801H10.1315L10.1484 8.89801L10.1631 8.94801H10.2165L10.175 8.97988L10.1906 9.03207L10.1478 8.99957L10.1037 9.03207ZM9.72216 9.0377L9.74747 8.95957L9.68278 8.91395H9.76278L9.7881 8.83707L9.81278 8.91395H9.8931L9.82872 8.95957L9.85403 9.0377L9.7881 8.98926L9.72216 9.0377ZM6.50466 9.2377L6.52185 9.18551L6.47841 9.15301H6.5331L6.54966 9.10301L6.56403 9.15301H6.61778L6.57466 9.18645L6.59153 9.2377L6.5481 9.20551L6.50466 9.2377ZM6.57278 8.99519L6.59216 8.9302L6.53872 8.8902H6.60466L6.62591 8.82676L6.64653 8.8902H6.71528L6.65997 8.92988L6.6806 8.99519L6.62591 8.95551L6.57278 8.99519ZM5.71528 8.96895L5.73653 8.90457L5.68091 8.86645H5.74872L5.7681 8.80301L5.78903 8.86645H5.85716L5.80216 8.90395L5.8231 8.96895L5.76903 8.92863L5.71528 8.96895ZM6.30997 8.5452L6.32091 8.5102L6.28872 8.48738H6.32778L6.34185 8.45082L6.3531 8.48738H6.39185L6.35966 8.5102L6.3706 8.5452L6.34028 8.52301L6.30997 8.5452ZM7.91747 8.52926L7.93872 8.46363L7.88591 8.42457H7.95153L7.97278 8.36113L7.99372 8.42457H8.05935L8.00653 8.46363L8.02778 8.52926L7.97278 8.48988L7.91747 8.52926ZM8.6356 7.96676L8.65122 7.91613L8.60685 7.8852H8.66091L8.67747 7.8327L8.69528 7.8852H8.74872L8.70435 7.91613L8.71966 7.96676L8.67747 7.93613L8.6356 7.96676ZM6.9306 8.21926L6.95185 8.15426L6.89653 8.11426H6.96528L6.98591 8.05082L7.00747 8.11426H7.07278L7.01966 8.15426L7.03841 8.21926L6.98591 8.17957L6.9306 8.21926Z" fill="white"/>
</g>
<defs>
<clipPath id="clip0_3055_9999">
<rect width="16" height="16" fill="white"/>
</clipPath>
</defs>
</svg>
