<svg width="65" height="65" viewBox="0 0 65 65" fill="none" xmlns="http://www.w3.org/2000/svg">
<rect width="65" height="65" rx="32.5" fill="#F4F4F4"/>
<path fill-rule="evenodd" clip-rule="evenodd" d="M38.8742 18.0008C38.3454 17.472 37.4879 17.472 36.9591 18.0008L36.0016 18.9584H33.8541C33.3818 18.9584 32.9436 19.2044 32.6978 19.6078L31.3437 21.8296C31.1162 22.2027 31.0907 22.6422 31.2362 23.0209H25.7291C21.9897 23.0209 18.9583 26.0523 18.9583 29.7917V40.625C18.9583 42.8687 20.7772 44.6875 23.0208 44.6875H41.9791C44.2228 44.6875 46.0416 42.8687 46.0416 40.625V29.7917C46.0416 26.0523 43.0102 23.0209 39.2708 23.0209H33.7893L34.6147 21.6667H36.5625C36.9216 21.6667 37.2661 21.524 37.52 21.2701L38.8742 19.9159C39.403 19.3871 39.403 18.5296 38.8742 18.0008ZM25.7291 32.8386C25.7291 33.7734 26.487 34.5313 27.4219 34.5313C28.3567 34.5313 29.1146 33.7734 29.1146 32.8386C29.1146 31.9037 28.3567 31.1459 27.4219 31.1459C26.487 31.1459 25.7291 31.9037 25.7291 32.8386ZM36.901 34.5313C35.9662 34.5313 35.2083 33.7734 35.2083 32.8386C35.2083 31.9037 35.9662 31.1459 36.901 31.1459C37.8359 31.1459 38.5937 31.9037 38.5937 32.8386C38.5937 33.7734 37.8359 34.5313 36.901 34.5313ZM28.5804 37.3111C28.9149 36.6422 29.7283 36.371 30.3972 36.7055L30.6832 36.8484C31.8269 37.4203 33.1731 37.4203 34.3168 36.8484L34.6027 36.7055C35.2716 36.371 36.0851 36.6422 36.4195 37.3111C36.754 37.98 36.4828 38.7934 35.8139 39.1279L35.528 39.2709C33.6218 40.2239 31.3781 40.2239 29.472 39.2709L29.186 39.1279C28.5171 38.7934 28.246 37.98 28.5804 37.3111Z" fill="black"/>
</svg>
