<svg width="58" height="58" viewBox="0 0 58 58" fill="none" xmlns="http://www.w3.org/2000/svg">
<path d="M22.7347 36.413L22.7225 36.4252L22.7107 36.4378C22.5919 36.5651 22.3908 36.6518 22.1609 36.6518C21.9527 36.6518 21.7523 36.5781 21.5872 36.413C21.2769 36.1027 21.2769 35.5759 21.5872 35.2656L35.2656 21.5872C35.5759 21.2769 36.1027 21.2769 36.413 21.5872C36.7233 21.8975 36.7233 22.4244 36.413 22.7347L22.7347 36.413Z" fill="#F4F4F4" stroke="#475569" stroke-width="2"/>
<path d="M35.8393 37.6518C35.3801 37.6518 34.921 37.4826 34.5585 37.1201L20.8801 23.4418C20.1793 22.7409 20.1793 21.581 20.8801 20.8801C21.581 20.1793 22.7409 20.1793 23.4418 20.8801L37.1201 34.5584C37.8209 35.2593 37.8209 36.4193 37.1201 37.1201C36.7576 37.4826 36.2985 37.6518 35.8393 37.6518Z" fill="#F4F4F4"/>
</svg>
