<svg width="21" height="21" viewBox="0 0 21 21" fill="none" xmlns="http://www.w3.org/2000/svg">
<g clip-path="url(#clip0_1634_7861)">
<path d="M16.7148 0.957031H4.21484C2.14378 0.957031 0.464844 2.56881 0.464844 4.55703V16.557C0.464844 18.5453 2.14378 20.157 4.21484 20.157H16.7148C18.7859 20.157 20.4648 18.5453 20.4648 16.557V4.55703C20.4648 2.56881 18.7859 0.957031 16.7148 0.957031Z" fill="#2DE21D"/>
<path d="M5.5716 15.3573H13.9253C15.9832 15.3573 17.2942 14.1427 17.5077 12.2842L17.9344 8.43536H15.0533L14.6569 11.9476C14.6112 12.416 14.3063 12.6793 13.8033 12.6793H5.84601L5.5716 15.3573ZM5.84601 12.6793L6.24233 9.16704C6.28809 8.69868 6.59298 8.43536 7.09602 8.43536H15.0533L15.3278 5.75732H6.974C4.91606 5.75732 3.60509 6.97202 3.39164 8.83048L2.96484 12.6793H5.84601Z" fill="white"/>
</g>
<defs>
<clipPath id="clip0_1634_7861">
<rect width="20" height="20" fill="white" transform="translate(0.464844 0.771973)"/>
</clipPath>
</defs>
</svg>
