<svg width="16" height="16" viewBox="0 0 16 16" fill="none" xmlns="http://www.w3.org/2000/svg">
<g clip-path="url(#clip0_3055_10004)">
<path d="M8 0C10.2089 0 12.209 0.89575 13.6567 2.34334C15.1042 3.79097 16 5.79116 16 8C16 10.2089 15.1042 12.2091 13.6567 13.6567C12.209 15.1043 10.2089 16 8 16C5.79138 16 3.79097 15.1043 2.34334 13.6567C0.89575 12.2091 0 10.2087 0 8C0 5.79116 0.89575 3.79097 2.34334 2.34334C3.79097 0.89575 5.79113 0 8 0Z" fill="#4D4D4D"/>
<path d="M7.99996 0.612305C10.0399 0.612305 11.8869 1.43937 13.2238 2.77612C14.5606 4.11299 15.3876 5.96002 15.3876 7.99996C15.3876 10.0399 14.5606 11.8869 13.2237 13.2237C11.8869 14.5605 10.0399 15.3876 7.99996 15.3876C5.96002 15.3876 4.11299 14.5605 2.77615 13.2238C1.43937 11.8869 0.612305 10.0399 0.612305 7.99996C0.612305 5.96002 1.43937 4.11299 2.77615 2.77612C4.11299 1.43937 5.96002 0.612305 7.99996 0.612305Z" fill="white"/>
<path d="M10.8935 1.88574C13.1809 2.97012 14.7627 5.29999 14.7627 7.99965C14.7627 10.6992 13.1809 13.0292 10.8935 14.1135V1.88574ZM5.01865 14.0709C2.7788 12.9689 1.2373 10.6645 1.2373 7.99965C1.2373 5.33477 2.7788 3.03024 5.01865 1.92837V14.0709Z" fill="#008751"/>
</g>
<defs>
<clipPath id="clip0_3055_10004">
<rect width="16" height="16" fill="white"/>
</clipPath>
</defs>
</svg>
