<svg width="16" height="16" viewBox="0 0 16 16" fill="none" xmlns="http://www.w3.org/2000/svg">
<g clip-path="url(#clip0_3055_10009)">
<path d="M8 0C10.2087 0 12.2091 0.895625 13.6566 2.34344C15.1044 3.79094 16 5.79125 16 8C16 10.2087 15.1044 12.2091 13.6566 13.6566C12.2091 15.1044 10.2087 16 8 16C5.79125 16 3.79094 15.1044 2.34344 13.6566C0.895625 12.2091 0 10.2087 0 8C0 5.79125 0.895625 3.79094 2.34344 2.34344C3.79094 0.895625 5.79125 0 8 0Z" fill="#999999"/>
<path d="M8.00007 0.608398C10.0407 0.608398 11.8894 1.4359 13.2266 2.77309L13.2607 2.80996C14.5776 4.14465 15.3913 5.97777 15.3913 7.99934C15.3913 10.0403 14.5632 11.8887 13.226 13.2259L13.1891 13.26C11.8538 14.5775 10.0204 15.3909 8.00007 15.3909C5.96163 15.3909 4.11351 14.5625 2.77569 13.2243C1.43694 11.8887 0.609131 10.0403 0.609131 7.99934C0.609131 5.9584 1.43663 4.11027 2.77382 2.77309C4.11101 1.4359 5.95944 0.608398 8.00007 0.608398Z" fill="white"/>
<path d="M8.00005 1.2373C11.7351 1.2373 14.7629 4.26512 14.7629 7.99981C14.7629 11.7348 11.7351 14.7629 8.00005 14.7629C4.26536 14.7629 1.23755 11.7348 1.23755 7.99981C1.23755 4.26512 4.26536 1.2373 8.00005 1.2373Z" fill="#EF2B2D"/>
<path d="M1.5188 6.06543H4.99568V1.94043C5.90099 1.49074 6.92068 1.2373 8.00005 1.2373C8.18068 1.2373 8.35943 1.2448 8.53599 1.25855V6.06543H14.4816C14.6644 6.67793 14.7629 7.32793 14.7629 7.99981C14.7629 8.55324 14.696 9.09074 14.5704 9.60574H8.53599V14.7417C8.35943 14.7557 8.18068 14.7629 8.00005 14.7629C6.92068 14.7629 5.90099 14.5095 4.99568 14.0598V9.60574H1.43005C1.30191 9.08005 1.23728 8.54089 1.23755 7.99981C1.23755 7.32793 1.33599 6.67793 1.5188 6.06543Z" fill="white"/>
<path d="M7.65067 1.24609V6.94984H14.6816C14.7351 7.29203 14.7629 7.64297 14.7629 7.99953C14.7629 8.24297 14.7494 8.48359 14.7241 8.72016H7.65067V14.7539C7.03567 14.7227 6.44161 14.6089 5.88067 14.4236V8.72016H1.2763C1.25099 8.48359 1.23755 8.24297 1.23755 7.99953C1.23755 7.64297 1.26536 7.29203 1.3188 6.94984H5.88067V1.57609C6.44161 1.39109 7.03567 1.27703 7.65067 1.24609Z" fill="#002868"/>
</g>
<defs>
<clipPath id="clip0_3055_10009">
<rect width="16" height="16" fill="white"/>
</clipPath>
</defs>
</svg>
