<svg width="16" height="16" viewBox="0 0 16 16" fill="none" xmlns="http://www.w3.org/2000/svg">
<g clip-path="url(#clip0_3055_10014)">
<path d="M8 0C10.2089 0 12.209 0.89575 13.6567 2.34334C15.1042 3.79097 16 5.79113 16 8C16 10.2089 15.1042 12.209 13.6567 13.6567C12.209 15.1042 10.2089 16 8 16C5.79134 16 3.79094 15.1042 2.34334 13.6567C0.895719 12.209 0 10.2086 0 8C0 5.79113 0.895719 3.79097 2.34334 2.34334C3.79094 0.89575 5.79113 0 8 0Z" fill="#4D4D4D"/>
<path d="M7.99996 0.612305C10.0399 0.612305 11.8869 1.4394 13.2238 2.77615C14.5606 4.11299 15.3876 5.96002 15.3876 7.99996C15.3876 10.0399 14.5606 11.8869 13.2237 13.2237C11.8869 14.5606 10.0399 15.3876 7.99996 15.3876C5.96002 15.3876 4.11299 14.5606 2.77615 13.2238C1.43937 11.8869 0.612305 10.0399 0.612305 7.99996C0.612305 5.96002 1.43937 4.11299 2.77615 2.77615C4.11299 1.4394 5.96002 0.612305 7.99996 0.612305Z" fill="white"/>
<path d="M8.00002 1.2373C11.735 1.2373 14.7627 4.26502 14.7627 8.00002C14.7627 11.735 11.735 14.7627 8.00002 14.7627C4.26499 14.7627 1.2373 11.735 1.2373 8.00002C1.2373 4.26502 4.26499 1.2373 8.00002 1.2373Z" fill="#000C8A"/>
<path d="M1.23755 7.98546H14.7626C14.7547 4.25709 11.7301 1.2373 8.00008 1.2373C4.26996 1.2373 1.24549 4.25709 1.23755 7.98546Z" fill="#E1392D"/>
<path d="M4.19562 2.4082L9.1284 5.70905H14.3646C14.6222 6.42452 14.7627 7.19564 14.7627 7.99983C14.7627 8.79305 14.6257 9.55423 14.3748 10.2615H9.1284L4.17421 13.5766C2.40062 12.3575 1.2373 10.3147 1.2373 7.99983C1.2373 5.67558 2.40996 3.62548 4.19562 2.4082Z" fill="white"/>
<path d="M3.45465 2.99219L8.84702 6.60403H14.6183C14.7145 7.06301 14.7629 7.53071 14.7627 7.99966C14.7627 8.46775 14.7152 8.92478 14.6247 9.36613H8.84702L3.43637 12.9902C2.08493 11.7537 1.2373 9.97575 1.2373 7.99966C1.2373 6.01463 2.09249 4.22931 3.45465 2.99219Z" fill="#007847"/>
<path d="M1.8363 5.21289L6.00815 7.98495L1.82634 10.7636C1.44793 9.9197 1.2373 8.98423 1.2373 7.99952C1.2373 7.00605 1.45152 6.06264 1.8363 5.21289Z" fill="#FFB915"/>
<path d="M1.51409 6.08105L4.37137 7.98584L1.50687 9.89549C1.33159 9.29418 1.2373 8.65827 1.2373 8.0004C1.2373 7.33359 1.33427 6.68955 1.51409 6.08105Z" fill="#000026"/>
</g>
<defs>
<clipPath id="clip0_3055_10014">
<rect width="16" height="16" fill="white"/>
</clipPath>
</defs>
</svg>
