<svg width="40" height="41" viewBox="0 0 40 41" fill="none" xmlns="http://www.w3.org/2000/svg">
<path d="M31.0937 20.0797L23.2999 17.2062L20.4202 9.40625C20.2 8.80903 19.802 8.29368 19.2798 7.92968C18.7576 7.56567 18.1364 7.37052 17.4999 7.37052C16.8634 7.37052 16.2422 7.56567 15.72 7.92968C15.1978 8.29368 14.7998 8.80903 14.5796 9.40625L11.7062 17.2062L3.90615 20.0797C3.30893 20.2999 2.79358 20.6979 2.42958 21.2201C2.06558 21.7423 1.87042 22.3635 1.87042 23C1.87042 23.6365 2.06558 24.2577 2.42958 24.7799C2.79358 25.3021 3.30893 25.7001 3.90615 25.9203L11.6999 28.7938L14.5796 36.5938C14.7998 37.191 15.1978 37.7063 15.72 38.0703C16.2422 38.4343 16.8634 38.6295 17.4999 38.6295C18.1364 38.6295 18.7576 38.4343 19.2798 38.0703C19.802 37.7063 20.2 37.191 20.4202 36.5938L23.2937 28.8L31.0937 25.9203C31.6909 25.7001 32.2062 25.3021 32.5702 24.7799C32.9342 24.2577 33.1294 23.6365 33.1294 23C33.1294 22.3635 32.9342 21.7423 32.5702 21.2201C32.2062 20.6979 31.6909 20.2999 31.0937 20.0797ZM21.1905 25.5734C20.936 25.6672 20.7049 25.8151 20.5131 26.0069C20.3213 26.1987 20.1734 26.4299 20.0796 26.6844L17.4999 33.6688L14.9265 26.6844C14.8327 26.4299 14.6848 26.1987 14.493 26.0069C14.3012 25.8151 14.07 25.6672 13.8155 25.5734L6.83115 23L13.8155 20.4266C14.07 20.3328 14.3012 20.1849 14.493 19.9931C14.6848 19.8013 14.8327 19.5701 14.9265 19.3156L17.4999 12.3313L20.0733 19.3156C20.1671 19.5701 20.315 19.8013 20.5068 19.9931C20.6986 20.1849 20.9298 20.3328 21.1843 20.4266L28.1687 23L21.1905 25.5734ZM21.8749 6.75C21.8749 6.25272 22.0724 5.77581 22.4241 5.42417C22.7757 5.07254 23.2526 4.875 23.7499 4.875H25.6249V3C25.6249 2.50272 25.8224 2.02581 26.1741 1.67417C26.5257 1.32254 27.0026 1.125 27.4999 1.125C27.9972 1.125 28.4741 1.32254 28.8257 1.67417C29.1774 2.02581 29.3749 2.50272 29.3749 3V4.875H31.2499C31.7472 4.875 32.2241 5.07254 32.5757 5.42417C32.9274 5.77581 33.1249 6.25272 33.1249 6.75C33.1249 7.24728 32.9274 7.72419 32.5757 8.07583C32.2241 8.42746 31.7472 8.625 31.2499 8.625H29.3749V10.5C29.3749 10.9973 29.1774 11.4742 28.8257 11.8258C28.4741 12.1775 27.9972 12.375 27.4999 12.375C27.0026 12.375 26.5257 12.1775 26.1741 11.8258C25.8224 11.4742 25.6249 10.9973 25.6249 10.5V8.625H23.7499C23.2526 8.625 22.7757 8.42746 22.4241 8.07583C22.0724 7.72419 21.8749 7.24728 21.8749 6.75ZM39.3749 14.25C39.3749 14.7473 39.1774 15.2242 38.8257 15.5758C38.4741 15.9275 37.9972 16.125 37.4999 16.125H36.8749V16.75C36.8749 17.2473 36.6774 17.7242 36.3257 18.0758C35.9741 18.4275 35.4972 18.625 34.9999 18.625C34.5026 18.625 34.0257 18.4275 33.6741 18.0758C33.3224 17.7242 33.1249 17.2473 33.1249 16.75V16.125H32.4999C32.0026 16.125 31.5257 15.9275 31.1741 15.5758C30.8224 15.2242 30.6249 14.7473 30.6249 14.25C30.6249 13.7527 30.8224 13.2758 31.1741 12.9242C31.5257 12.5725 32.0026 12.375 32.4999 12.375H33.1249V11.75C33.1249 11.2527 33.3224 10.7758 33.6741 10.4242C34.0257 10.0725 34.5026 9.875 34.9999 9.875C35.4972 9.875 35.9741 10.0725 36.3257 10.4242C36.6774 10.7758 36.8749 11.2527 36.8749 11.75V12.375H37.4999C37.9972 12.375 38.4741 12.5725 38.8257 12.9242C39.1774 13.2758 39.3749 13.7527 39.3749 14.25Z" fill="url(#paint0_linear_2333_25027)"/>
<defs>
<linearGradient id="paint0_linear_2333_25027" x1="1.87042" y1="19.8772" x2="39.3749" y2="19.8772" gradientUnits="userSpaceOnUse">
<stop stop-color="#C088FB"/>
<stop offset="1" stop-color="#9747FF"/>
</linearGradient>
</defs>
</svg>
