<svg width="24" height="24" viewBox="0 0 24 24" fill="none" xmlns="http://www.w3.org/2000/svg">
<path d="M8.02344 17.5C7.19587 17.5 6.51562 18.1683 6.51562 19C6.51562 19.8314 7.19455 20.5 8.02344 20.5C8.85081 20.4998 9.53027 19.8316 9.53027 19C9.53027 18.1684 8.85081 17.5002 8.02344 17.5ZM15.9775 11.5C15.2642 11.5002 14.7021 11.9959 14.5361 12.626L14.501 12.7588L14.54 12.8916C14.5437 12.9042 14.5467 12.917 14.5498 12.9277C14.5531 12.9389 14.5559 12.9487 14.5586 12.958C14.564 12.9767 14.5677 12.9908 14.5703 13.002C14.5725 13.0115 14.5737 13.0177 14.5742 13.0215C14.5738 13.0236 14.5743 13.0271 14.5732 13.0312C14.5708 13.0411 14.5671 13.053 14.5615 13.0723C14.5566 13.0891 14.549 13.1152 14.542 13.1416L14.5059 13.2754L14.5449 13.4092C14.7228 14.0233 15.2785 14.4998 15.9775 14.5C16.8051 14.5 17.4854 13.8317 17.4854 13C17.4854 12.1699 16.8068 11.5 15.9775 11.5ZM8.02246 3.5C7.19457 3.5 6.51465 4.16962 6.51465 5C6.51465 5.8307 7.19487 6.5 8.02344 6.5C8.85113 6.49976 9.53027 5.83023 9.53027 5C9.53027 4.16913 8.8495 3.50025 8.02246 3.5ZM7.51465 7.46289L7.18164 7.34473C6.19939 6.99711 5.5 6.07764 5.5 5C5.5 3.62581 6.6299 2.5 8.02344 2.5C9.41656 2.50024 10.5449 3.62574 10.5449 5C10.5449 6.07767 9.84557 6.99713 8.86328 7.34473L8.53027 7.46289V9C8.53027 10.9348 10.1141 12.5055 12.0547 12.5117V12.5127L13.1318 12.5186L13.4883 12.5205L13.6064 12.1846C13.9511 11.2054 14.8799 10.5002 15.9775 10.5C17.3709 10.5 18.5 11.6256 18.5 13C18.5 14.3743 17.371 15.5 15.9766 15.5C14.8901 15.4998 13.9689 14.81 13.6152 13.8477L13.4961 13.5215L13.1484 13.5195L12.0498 13.5137H12.0488C11.0293 13.5101 10.0946 13.1578 9.33008 12.5811L8.5293 11.9766V16.5371L8.8623 16.6553C9.84458 17.0029 10.5439 17.9223 10.5439 19C10.5439 20.3743 9.41557 21.4998 8.02246 21.5C6.62914 21.5 5.5 20.3744 5.5 19C5.5 17.9223 6.19971 17.0029 7.18164 16.6562L7.51465 16.5391V7.46289Z" fill="#1F2A37" stroke="#C088FB"/>
</svg>
