<svg width="24" height="24" viewBox="0 0 24 24" fill="none" xmlns="http://www.w3.org/2000/svg">
<path d="M15.978 10C14.659 10 13.547 10.848 13.135 12.019L12.057 12.013C10.388 12.008 9.03 10.656 9.03 9V7.816C10.2 7.402 11.045 6.302 11.045 5C11.045 3.346 9.689 2 8.023 2C6.357 2 5 3.346 5 5C5 6.302 5.845 7.402 7.015 7.816V16.185C5.845 16.598 5 17.698 5 19C5 20.654 6.356 22 8.022 22C9.688 22 11.044 20.654 11.044 19C11.044 17.698 10.199 16.598 9.029 16.184V12.98C9.872 13.616 10.91 14.01 12.047 14.014L13.146 14.02C13.569 15.171 14.672 16 15.977 16C17.644 16 19 14.654 19 13C19 11.346 17.644 10 15.978 10ZM8.023 20C7.467 20 7.016 19.552 7.016 19C7.016 18.448 7.468 18 8.023 18C8.578 18 9.03 18.448 9.03 19C9.03 19.552 8.578 20 8.023 20ZM8.023 6C7.467 6 7.015 5.551 7.015 5C7.015 4.449 7.467 4 8.022 4C8.577 4 9.03 4.449 9.03 5C9.03 5.551 8.578 6 8.023 6ZM15.978 14C15.519 14 15.146 13.688 15.025 13.27C15.046 13.191 15.075 13.115 15.075 13.03C15.076 12.932 15.046 12.843 15.02 12.753C15.133 12.324 15.51 12 15.978 12C16.534 12 16.985 12.449 16.985 13C16.985 13.552 16.533 14 15.978 14Z" fill="#F4F4F4"/>
</svg>
