<?xml version="1.0" encoding="UTF-8" standalone="no"?>
<!DOCTYPE svg PUBLIC "-//W3C//DTD SVG 1.1//EN" "http://www.w3.org/Graphics/SVG/1.1/DTD/svg11.dtd">
<svg xmlns="http://www.w3.org/2000/svg" version="1.1" viewBox="0.00 0.00 64.00 64.00">
<path fill="#ff7777" d="
  M 16.84 15.78
  L 12.22 29.60
  A 0.24 0.24 0.0 0 1 11.93 29.75
  L 11.46 29.60
  A 0.24 0.24 0.0 0 1 11.31 29.30
  L 15.97 15.47
  A 0.24 0.24 0.0 0 0 15.82 15.16
  L 9.08 12.91
  A 0.24 0.24 0.0 0 1 8.93 12.61
  L 10.31 8.26
  A 0.24 0.24 0.0 0 1 10.61 8.11
  L 25.52 13.13
  A 0.24 0.24 0.0 0 1 25.67 13.44
  L 24.19 17.69
  A 0.24 0.24 0.0 0 1 23.89 17.84
  L 17.15 15.62
  A 0.24 0.24 0.0 0 0 16.84 15.78
  Z"
/>
<path fill="#d5d82a" d="
  M 43.02 22.42
  A 0.39 0.39 0.0 0 0 42.58 22.76
  L 41.91 28.24
  Q 41.89 28.43 41.70 28.44
  L 41.34 28.46
  Q 40.94 28.48 40.98 28.08
  L 42.81 8.75
  A 0.36 0.36 0.0 0 1 43.19 8.43
  C 46.63 8.71 51.39 8.71 54.09 10.11
  C 59.40 12.85 58.58 20.83 52.94 22.70
  C 50.36 23.55 46.03 22.76 43.02 22.42
  Z
  M 43.74 9.95
  L 42.68 20.90
  A 0.48 0.48 0.0 0 0 43.12 21.42
  L 49.92 22.08
  A 6.14 5.86 5.5 0 0 56.60 16.83
  L 56.62 16.60
  A 6.14 5.86 5.5 0 0 51.07 10.17
  L 44.26 9.52
  A 0.48 0.48 0.0 0 0 43.74 9.95
  Z"
/>
<path fill="#302f2f" d="
  M 30.17 34.84
  L 31.25 40.02
  A 0.28 0.27 79.3 0 1 31.04 40.34
  L 26.49 41.25
  A 0.35 0.35 0.0 0 1 26.08 40.98
  L 22.18 22.26
  Q 22.06 21.68 22.64 21.54
  C 26.14 20.71 31.41 19.12 34.60 20.09
  C 39.65 21.62 40.73 28.81 36.74 32.04
  C 35.08 33.38 32.82 33.77 30.64 34.16
  Q 30.05 34.26 30.17 34.84
  Z"
/>
<path fill="#26a8df" d="
  M 23.06 54.74
  L 22.67 55.14
  A 0.25 0.25 0.0 0 1 22.26 55.08
  L 18.70 47.69
  A 0.25 0.25 0.0 0 0 18.61 47.58
  L 6.98 40.53
  A 0.25 0.25 0.0 0 1 7.01 40.09
  L 21.58 33.32
  A 0.25 0.25 0.0 0 1 21.93 33.59
  L 19.72 47.27
  A 0.25 0.25 0.0 0 0 19.74 47.42
  L 23.10 54.46
  A 0.25 0.25 0.0 0 1 23.06 54.74
  Z"
/>
<path fill="#fc0072" d="
  M 54.9235 44.9714
  A 7.70 7.70 0.0 0 1 49.7609 54.5593
  L 48.6307 54.8984
  A 7.70 7.70 0.0 0 1 39.0428 49.7358
  L 37.4565 44.4486
  A 7.70 7.70 0.0 0 1 42.6191 34.8607
  L 43.7493 34.5216
  A 7.70 7.70 0.0 0 1 53.3372 39.6842
  L 54.9235 44.9714
  Z
  M 48.4560 41.3678
  A 2.94 2.94 0.0 0 0 44.8230 39.3458
  L 44.4960 39.4389
  A 2.94 2.94 0.0 0 0 42.4740 43.0719
  L 43.9040 48.0922
  A 2.94 2.94 0.0 0 0 47.5370 50.1142
  L 47.8640 50.0211
  A 2.94 2.94 0.0 0 0 49.8860 46.3881
  L 48.4560 41.3678
  Z"
/>
</svg>
