<svg width="16" height="16" viewBox="0 0 16 16" fill="none" xmlns="http://www.w3.org/2000/svg">
<g clip-path="url(#clip0_3055_10024)">
<path d="M8 0C10.2087 0 12.2091 0.895625 13.6566 2.34344C15.1044 3.79094 16 5.79125 16 8C16 10.2087 15.1044 12.2091 13.6566 13.6566C12.2091 15.1044 10.2087 16 8 16C5.79125 16 3.79094 15.1044 2.34344 13.6566C0.895625 12.2091 0 10.2087 0 8C0 5.79125 0.895625 3.79094 2.34344 2.34344C3.79094 0.895625 5.79125 0 8 0Z" fill="#999999"/>
<path d="M8.00007 0.608398C10.0407 0.608398 11.8894 1.4359 13.2266 2.77309L13.2607 2.80996C14.5776 4.14465 15.3913 5.97777 15.3913 7.99934C15.3913 10.0403 14.5632 11.8887 13.226 13.2259L13.1891 13.26C11.8538 14.5775 10.0204 15.3909 8.00007 15.3909C5.96163 15.3909 4.11351 14.5625 2.77569 13.2243C1.43694 11.8887 0.609131 10.0403 0.609131 7.99934C0.609131 5.9584 1.43663 4.11027 2.77382 2.77309C4.11101 1.4359 5.95944 0.608398 8.00007 0.608398Z" fill="white"/>
<path d="M8.00005 1.2373C11.7351 1.2373 14.7629 4.26512 14.7629 7.99981C14.7629 11.7348 11.7351 14.7629 8.00005 14.7629C4.26536 14.7629 1.23755 11.7348 1.23755 7.99981C1.23755 4.26512 4.26536 1.2373 8.00005 1.2373Z" fill="#FEFEFE"/>
<path d="M5.73402 5.61078V1.62641C4.44277 2.08578 3.33246 2.92672 2.53809 4.01234L5.73402 5.61078ZM5.73402 10.3889V14.3733C4.4434 13.9139 3.3334 13.0736 2.5384 11.9873L5.73402 10.3889ZM10.2512 10.3889V14.3786C11.5465 13.9214 12.6603 13.0805 13.4578 11.993L10.2512 10.3889ZM10.2512 5.61078V1.62109C11.5465 2.07828 12.6609 2.91922 13.4581 4.00703L10.2512 5.61078Z" fill="#012169"/>
<path d="M14.0094 10.2551H12.506L14.0482 11.0276C14.1485 10.8273 14.2391 10.6214 14.3197 10.4104L14.0094 10.2551ZM13.7176 4.38762L11.0169 5.74168H12.5204L14.0501 4.97606C13.9491 4.77418 13.8379 4.57762 13.7176 4.38762ZM6.63786 9.35199V14.6254C7.07786 14.7151 7.53349 14.7629 8.00005 14.7629C8.4613 14.7629 8.91224 14.7164 9.34786 14.6286V9.35199H14.6272C14.7157 8.91512 14.7629 8.46324 14.7629 7.99981C14.7629 7.53481 14.7157 7.08043 14.6263 6.64137H9.34786V1.37199C8.9042 1.28231 8.45269 1.23719 8.00005 1.2373C7.53349 1.2373 7.07786 1.28543 6.63786 1.3748V6.64137H1.37411C1.28317 7.08846 1.23742 7.54356 1.23755 7.99981C1.23755 8.46324 1.28474 8.91512 1.37317 9.35199H6.63786ZM1.97255 5.74512H3.47599L1.94817 4.98012C1.84817 5.18043 1.75724 5.38699 1.67692 5.59762L1.97255 5.74512ZM4.96849 10.2586H3.46505L1.94724 11.0182C2.04862 11.221 2.16011 11.4185 2.2813 11.6101L4.98224 10.2586H4.96849Z" fill="#C8102E"/>
</g>
<defs>
<clipPath id="clip0_3055_10024">
<rect width="16" height="16" fill="white"/>
</clipPath>
</defs>
</svg>
